<svg xmlns="http://www.w3.org/2000/svg" xmlns:xlink="http://www.w3.org/1999/xlink" width="134" height="119" viewBox="0 0 134 119">
  <defs>
    <filter id="Ellipse_61" x="0" y="0" width="134" height="119" filterUnits="userSpaceOnUse">
      <feOffset dy="3" input="SourceAlpha"/>
      <feGaussianBlur stdDeviation="3" result="blur"/>
      <feFlood flood-color="#f9c345"/>
      <feComposite operator="in" in2="blur"/>
      <feComposite in="SourceGraphic"/>
    </filter>
  </defs>
  <g id="Group_162" data-name="Group 162" transform="translate(-893 -51)">
    <g transform="matrix(1, 0, 0, 1, 893, 51)" filter="url(#Ellipse_61)">
      <ellipse id="Ellipse_61-2" data-name="Ellipse 61" cx="58" cy="50.5" rx="58" ry="50.5" transform="translate(9 6)" fill="#f9ce51"/>
    </g>
    <g id="owlhero_logo_leaves" transform="translate(915.451 66.443)">
      <g id="owl" transform="translate(14.909 4.233)">
        <path id="Path_244" data-name="Path 244" d="M18.993,41.42a16.754,16.754,0,0,0-4.32,7.561c-.259,1.015-2.3,9.6,3.24,14.041a11.857,11.857,0,0,0,8.641,2.16c4.3-5.941,4.644-13.372,1.08-18.362A14.336,14.336,0,0,0,18.993,41.42Z" transform="translate(-14.093 -1.254)" fill="#3b52bc"/>
        <path id="Path_245" data-name="Path 245" d="M63.431,40.68a16.754,16.754,0,0,1,4.32,7.561c.259,1.015,2.3,9.6-3.24,14.041a11.857,11.857,0,0,1-8.641,2.16c-4.3-5.941-4.644-13.372-1.08-18.362A14.39,14.39,0,0,1,63.431,40.68Z" transform="translate(-11.028 -1.313)" fill="#3b52bc"/>
        <ellipse id="Ellipse_58" data-name="Ellipse 58" cx="21.062" cy="17.822" rx="21.062" ry="17.822" transform="translate(8.14 35.846)" fill="#4864ce"/>
        <path id="Path_246" data-name="Path 246" d="M25.63,71.821a5.428,5.428,0,0,1,1.08-3.24,5.789,5.789,0,0,1,4.32-2.16" transform="translate(-13.169 0.749)" fill="none" stroke="#3b52bc" stroke-linecap="round" stroke-miterlimit="10" stroke-width="2"/>
        <path id="Path_247" data-name="Path 247" d="M28.63,72.9a8.131,8.131,0,0,1,1.113-4.115A7.989,7.989,0,0,1,31.87,66.42" transform="translate(-12.929 0.749)" fill="none" stroke="#3b52bc" stroke-linecap="round" stroke-miterlimit="10" stroke-width="2"/>
        <path id="Path_248" data-name="Path 248" d="M32.71,72.9a5.038,5.038,0,0,0,.6-4.45A4.411,4.411,0,0,0,31.63,66.42" transform="translate(-12.689 0.749)" fill="none" stroke="#3b52bc" stroke-linecap="round" stroke-miterlimit="10" stroke-width="2"/>
        <path id="Path_249" data-name="Path 249" d="M55.981,71.511a5.428,5.428,0,0,0-1.08-3.24,5.789,5.789,0,0,0-4.32-2.16" transform="translate(-11.171 0.724)" fill="none" stroke="#3b52bc" stroke-linecap="round" stroke-miterlimit="10" stroke-width="2"/>
        <path id="Path_250" data-name="Path 250" d="M52.82,72.591a8.131,8.131,0,0,0-1.113-4.115A7.989,7.989,0,0,0,49.58,66.11" transform="translate(-11.251 0.724)" fill="none" stroke="#3b52bc" stroke-linecap="round" stroke-miterlimit="10" stroke-width="2"/>
        <path id="Path_251" data-name="Path 251" d="M48.647,72.591a5.038,5.038,0,0,1-.6-4.45,4.411,4.411,0,0,1,1.685-2.031" transform="translate(-11.398 0.724)" fill="none" stroke="#3b52bc" stroke-linecap="round" stroke-miterlimit="10" stroke-width="2"/>
        <path id="Path_252" data-name="Path 252" d="M16.807,4.435c-1.167.907-.259,4.31,1.08,6.481a10.188,10.188,0,0,0,3.24,3.24,40.487,40.487,0,0,0-4.32,8.641c-1.469,4.126-2.959,8.274-2.16,12.961,1.361,8,8.511,12.583,10.8,14.041,6.686,4.277,13.318,4.3,17.282,4.32,4.547.022,12.41.054,19.442-5.4,1.728-1.339,7.291-5.649,8.641-12.961,1.037-5.606-.832-10.553-2.16-14.041a36.078,36.078,0,0,0-3.24-6.481,14.863,14.863,0,0,0,3.24-4.32c.821-1.685,2.279-5.5,1.08-6.481-1.113-.907-3.5,1.426-7.561,3.24-4.785,2.139-9.311,2.149-18.362,2.16a53.2,53.2,0,0,1-12.961-1.08A47.805,47.805,0,0,1,23.287,6.6C19.313,5.04,17.725,3.722,16.807,4.435Z" transform="translate(-14.067 -4.233)" fill="#5273dc"/>
        <path id="Path_253" data-name="Path 253" d="M42.313,20.906a20.037,20.037,0,0,0-5.4-4.32c-1.912-1.048-4.169-2.29-6.481-2.16-5.681.3-10.7,8.77-10.8,16.2-.022,2-.076,6.383,3.24,9.721a11.8,11.8,0,0,0,8.641,3.24,12.917,12.917,0,0,0,10.8-7.561,10.9,10.9,0,0,0,5.4,6.481c4.45,2.117,9.235.065,11.881-2.16,4.32-3.64,4.32-9.062,4.32-10.8,0-6.47-3.953-14.322-9.721-15.121-3.413-.475-6.729,1.631-7.561,2.16A14.33,14.33,0,0,0,42.313,20.906Z" transform="translate(-13.65 -3.422)" fill="#f1daab"/>
        <path id="Path_254" data-name="Path 254" d="M36.644,32.582c.7-1.825,3.057-2.139,3.24-2.16,1.631-.194,3.694.551,4.32,2.16a3.354,3.354,0,0,1,0,2.16c-.324,1.177-1.361,2.992-3.24,3.24-2.128.281-3.834-1.642-4.32-3.24A3.316,3.316,0,0,1,36.644,32.582Z" transform="translate(-12.302 -2.137)" fill="#ff3736"/>
        <ellipse id="Ellipse_59" data-name="Ellipse 59" cx="3.78" cy="2.171" rx="3.78" ry="2.171" transform="translate(14.401 30.352) rotate(-86.985)" fill="#020029"/>
        <ellipse id="Ellipse_60" data-name="Ellipse 60" cx="2.171" cy="3.78" rx="2.171" ry="3.78" transform="translate(36.049 22.311) rotate(-3.015)" fill="#020029"/>
      </g>
      <g id="leaves" transform="translate(3.913 10.812)">
        <path id="Path_255" data-name="Path 255" d="M9.934,15.526c-.7-.767-2.992-.184-4.32,1.08-1.534,1.458-1.944,3.975-1.08,6.481a9.1,9.1,0,0,0,3.24-2.16C9.372,19.252,10.765,16.433,9.934,15.526Z" transform="translate(-3.899 -9.935)" fill="#04aa96" stroke="#04aa96" stroke-linecap="round" stroke-linejoin="round" stroke-miterlimit="10" stroke-width="1"/>
        <path id="Path_256" data-name="Path 256" d="M12.165,22.128c-.508-.734-3.143-.389-4.32,1.08C6.472,24.936,7,28.317,9.691,31.2A11.9,11.9,0,0,1,10,27.528C10.814,24.277,12.683,22.851,12.165,22.128Z" transform="translate(-3.657 -9.408)" fill="#04aa96" stroke="#04aa96" stroke-linecap="round" stroke-linejoin="round" stroke-miterlimit="10" stroke-width="1"/>
        <path id="Path_257" data-name="Path 257" d="M11.661,63.5c-1.091.032-2.247,1.771-2.16,3.24.13,2.031,2.679,4.029,6.481,4.32a18.889,18.889,0,0,0-1.08-3.24C14.08,65.952,12.989,63.457,11.661,63.5Z" transform="translate(-3.466 -6.064)" fill="#04aa96" stroke="#04aa96" stroke-linecap="round" stroke-linejoin="round" stroke-miterlimit="10" stroke-width="1"/>
        <path id="Path_258" data-name="Path 258" d="M7.743,55.507c-1.026-.464-2.97.778-3.24,2.16-.292,1.512,1.339,3.564,4.32,4.32a14.571,14.571,0,0,0,0-3.24C8.628,57.041,8.488,55.842,7.743,55.507Z" transform="translate(-3.868 -6.712)" fill="#04aa96" stroke="#04aa96" stroke-linejoin="round" stroke-miterlimit="10" stroke-width="1"/>
        <path id="Path_259" data-name="Path 259" d="M18,71.3a3.827,3.827,0,0,1,1.62-3.78c.551-.281,1.609-.551,2.16,0s.281,1.609,0,2.16A3.827,3.827,0,0,1,18,71.3Z" transform="translate(-2.785 -5.768)" fill="#04aa96"/>
        <path id="Path_260" data-name="Path 260" d="M12.271,15.874a3.827,3.827,0,0,1,1.62-3.78c.551-.281,1.609-.551,2.16,0s.281,1.609,0,2.16A3.827,3.827,0,0,1,12.271,15.874Z" transform="translate(-3.244 -10.208)" fill="#04aa96"/>
        <path id="Path_261" data-name="Path 261" d="M6.459,35.35c-1.037-.108-2.365,1.847-2.527,3.662-.194,2.106,1.167,4.266,3.478,5.573a9.129,9.129,0,0,0,1-3.759C8.5,38.515,7.69,35.48,6.459,35.35Z" transform="translate(-3.913 -8.32)" fill="#04aa96" stroke="#04aa96" stroke-linecap="round" stroke-linejoin="round" stroke-miterlimit="10" stroke-width="1"/>
        <path id="Path_262" data-name="Path 262" d="M73.588,14.066c.7-.767,2.992-.184,4.32,1.08,1.534,1.458,1.944,3.975,1.08,6.481a9.1,9.1,0,0,1-3.24-2.16C74.15,17.792,72.757,14.973,73.588,14.066Z" transform="translate(1.649 -10.052)" fill="#04aa96" stroke="#04aa96" stroke-linecap="round" stroke-linejoin="round" stroke-miterlimit="10" stroke-width="1"/>
        <path id="Path_263" data-name="Path 263" d="M71.286,20.668c.508-.734,3.143-.389,4.32,1.08,1.372,1.728.842,5.109-1.847,7.993a11.9,11.9,0,0,0-.313-3.672C72.647,22.828,70.779,21.4,71.286,20.668Z" transform="translate(1.477 -9.525)" fill="#04aa96" stroke="#04aa96" stroke-linecap="round" stroke-linejoin="round" stroke-miterlimit="10" stroke-width="1"/>
        <path id="Path_264" data-name="Path 264" d="M71.89,62.04c1.091.032,2.247,1.771,2.16,3.24-.13,2.031-2.679,4.029-6.481,4.32a18.889,18.889,0,0,1,1.08-3.24C69.471,64.492,70.573,62.008,71.89,62.04Z" transform="translate(1.186 -6.181)" fill="#04aa96" stroke="#04aa96" stroke-linecap="round" stroke-linejoin="round" stroke-miterlimit="10" stroke-width="1"/>
        <path id="Path_265" data-name="Path 265" d="M75.657,54.047c1.026-.464,2.97.778,3.24,2.16.292,1.512-1.339,3.564-4.32,4.32a14.571,14.571,0,0,1,0-3.24C74.782,55.581,74.912,54.393,75.657,54.047Z" transform="translate(1.74 -6.829)" fill="#04aa96" stroke="#04aa96" stroke-linejoin="round" stroke-miterlimit="10" stroke-width="1"/>
        <path id="Path_266" data-name="Path 266" d="M65.374,69.844a3.827,3.827,0,0,0-1.62-3.78c-.551-.281-1.609-.551-2.16,0s-.281,1.609,0,2.16A3.827,3.827,0,0,0,65.374,69.844Z" transform="translate(0.682 -5.884)" fill="#04aa96"/>
        <path id="Path_267" data-name="Path 267" d="M71.114,14.424a3.827,3.827,0,0,0-1.62-3.78c-.551-.281-1.609-.551-2.16,0s-.281,1.609,0,2.16A3.867,3.867,0,0,0,71.114,14.424Z" transform="translate(1.142 -10.324)" fill="#04aa96"/>
        <path id="Path_268" data-name="Path 268" d="M76.945,33.89c1.037-.108,2.365,1.847,2.527,3.662.194,2.106-1.167,4.266-3.478,5.573a9.129,9.129,0,0,1-1-3.759C74.9,37.055,75.725,34.02,76.945,33.89Z" transform="translate(1.78 -8.437)" fill="#04aa96" stroke="#04aa96" stroke-linecap="round" stroke-linejoin="round" stroke-miterlimit="10" stroke-width="1"/>
      </g>
    </g>
  </g>
</svg>
