<svg xmlns="http://www.w3.org/2000/svg" xmlns:xlink="http://www.w3.org/1999/xlink" width="115" height="110" viewBox="0 0 115 110">
  <defs>
    <filter id="Ellipse_6" x="0" y="0" width="115" height="110" filterUnits="userSpaceOnUse">
      <feOffset dy="3" input="SourceAlpha"/>
      <feGaussianBlur stdDeviation="3" result="blur"/>
      <feFlood flood-color="#f9c345"/>
      <feComposite operator="in" in2="blur"/>
      <feComposite in="SourceGraphic"/>
    </filter>
  </defs>
  <g id="Group_110" data-name="Group 110" transform="translate(-903 -50)">
    <g transform="matrix(1, 0, 0, 1, 903, 50)" filter="url(#Ellipse_6)">
      <ellipse id="Ellipse_6-2" data-name="Ellipse 6" cx="48.5" cy="46" rx="48.5" ry="46" transform="translate(9 6)" fill="#f9c345"/>
    </g>
    <g id="owl_3_" data-name="owl (3)" transform="translate(868.415 67.223)">
      <g id="Group_25" data-name="Group 25" transform="translate(62.899 0)">
        <path id="Path_60" data-name="Path 60" d="M120.734,1.567a1.261,1.261,0,0,0-2.116-1.2,31.184,31.184,0,0,1-15.947,8.547,15.113,15.113,0,0,0-10.836,8.767A15.112,15.112,0,0,0,81,8.917a31.42,31.42,0,0,1-4.165-1.142A1.261,1.261,0,1,0,76,10.155a33.9,33.9,0,0,0,4.5,1.234A12.586,12.586,0,0,1,90.574,23.616L79.715,18.457A26.386,26.386,0,0,1,66.867,5.277a33.782,33.782,0,0,0,4.869,3.047A1.261,1.261,0,1,0,72.888,6.08,31.25,31.25,0,0,1,65.052.37a1.261,1.261,0,0,0-2.115,1.2,28.92,28.92,0,0,0,8.817,14.607,12.788,12.788,0,0,0-3.913,6.873,1.254,1.254,0,0,0-.272.477c-.092.3-2.226,7.475-.392,17.638a49.2,49.2,0,0,0,6.6,17.072A65.646,65.646,0,0,0,91.065,76.479a1.261,1.261,0,0,0,1.495,0,65.645,65.645,0,0,0,17.287-18.245,49.209,49.209,0,0,0,6.6-17.072c1.834-10.163-.3-17.338-.392-17.638a1.257,1.257,0,0,0-.215-.41,12.786,12.786,0,0,0-3.925-6.939A28.915,28.915,0,0,0,120.734,1.567Zm-28.9,29.574a12.842,12.842,0,0,0,4.212,4.936l-4.236,4.236L87.6,36.1A12.845,12.845,0,0,0,91.837,31.141Zm-9.682-5.53a1.862,1.862,0,1,1-1.862-1.862A1.864,1.864,0,0,1,82.154,25.611ZM73.735,17.79a29.182,29.182,0,0,0,4.9,2.945l1.11.527a4.388,4.388,0,1,0,4.266,2.027l6.534,3.1a10.236,10.236,0,1,1-16.807-8.6ZM90.192,72.63A61.49,61.49,0,0,1,75.975,56.991,46.933,46.933,0,0,1,69.9,41.934a27.065,27.065,0,0,1,20.294,30.7Zm24.014-33.385a29.466,29.466,0,0,0-13.886,7.018,1.261,1.261,0,1,0,1.69,1.873,26.959,26.959,0,0,1,11.717-6.2A46.9,46.9,0,0,1,107.7,56.912,61.43,61.43,0,0,1,93.435,72.63a27.29,27.29,0,0,1-.36-4.4A26.847,26.847,0,0,1,98.3,52.244a1.261,1.261,0,1,0-2.034-1.492,29.4,29.4,0,0,0-4.458,8.913A29.578,29.578,0,0,0,69.421,39.244a43.056,43.056,0,0,1-.424-7.8,12.752,12.752,0,0,0,16.3,5.919l5.622,5.622a1.261,1.261,0,0,0,1.784,0l5.636-5.636a12.748,12.748,0,0,0,16.295-5.834A43.1,43.1,0,0,1,114.206,39.245Zm-.638-13.632a10.234,10.234,0,0,1-20.437.779L99.6,23.32a4.383,4.383,0,1,0,4.321-2.053l1.12-.532a29.181,29.181,0,0,0,4.9-2.945A10.253,10.253,0,0,1,113.568,25.613Zm-12.1,0a1.862,1.862,0,1,1,1.861,1.861A1.864,1.864,0,0,1,101.472,25.611Zm2.484-7.154L93.1,23.616A12.586,12.586,0,0,1,103.169,11.39,33.69,33.69,0,0,0,116.8,5.281,26.387,26.387,0,0,1,103.956,18.457Z" transform="translate(-62.899 0)" fill="#12ab90"/>
      </g>
    </g>
  </g>
</svg>
